<svg width="81" height="81" viewBox="0 0 81 81" fill="none" xmlns="http://www.w3.org/2000/svg">
<path fill-rule="evenodd" clip-rule="evenodd" d="M0 0V81H81V0H0ZM25.194 67.2927H13.1765V31.1371H25.194V67.2927ZM19.1853 26.2023H19.1059C15.0745 26.2023 12.4615 23.425 12.4615 19.9536C12.4615 16.406 15.1509 13.7073 19.2639 13.7073C23.3778 13.7073 25.9059 16.406 25.9846 19.9536C25.9846 23.425 23.3778 26.2023 19.1853 26.2023ZM68.5385 67.2927H56.5177V47.9493C56.5177 43.0909 54.7809 39.7746 50.4302 39.7746C47.1076 39.7746 45.1332 42.0075 44.2634 44.1705C43.9472 44.9431 43.8646 46.0171 43.8646 47.1005V67.2928H31.8415C31.8415 67.2928 32.0027 34.5291 31.8415 31.1373H43.8646V36.2606C45.462 33.8026 48.3127 30.2885 54.6983 30.2885C62.6091 30.2885 68.5385 35.4547 68.5385 46.5593V67.2927Z" fill="#4152A4"/>
</svg>
