<svg width="46" height="38" viewBox="0 0 46 38" fill="none" xmlns="http://www.w3.org/2000/svg">
<path d="M46 4.49867C44.3076 5.26241 42.4887 5.77676 40.5797 6.00861C42.5289 4.82209 44.0258 2.94196 44.7292 0.701395C42.9065 1.80025 40.8863 2.59906 38.7358 3.02963C37.0166 1.16509 34.5613 0 31.8473 0C25.7542 0 21.2769 5.77871 22.6531 11.7776C14.812 11.3782 7.85833 7.55947 3.20275 1.75543C0.73025 6.06706 1.9205 11.7074 6.12183 14.5637C4.577 14.513 3.12033 14.0824 1.84958 13.3635C1.74608 17.8076 4.87983 21.9653 9.4185 22.8908C8.09025 23.2571 6.6355 23.3428 5.15583 23.0544C6.35567 26.8654 9.84017 29.6378 13.9725 29.7157C10.005 32.8779 5.00633 34.2904 0 33.6903C4.17642 36.4121 9.13867 38 14.467 38C31.9892 38 41.8887 22.957 41.2907 9.46493C43.1346 8.11085 44.735 6.42166 46 4.49867Z" fill="#FFFAEA"/>
</svg>
