<svg width="81" height="67" viewBox="0 0 81 67" fill="none" xmlns="http://www.w3.org/2000/svg">
<path d="M81 8.37985C78.0199 9.70285 74.817 10.5938 71.4555 10.9955C74.8879 8.9401 77.5238 5.68323 78.7624 1.80198C75.5527 3.70548 71.9955 5.08923 68.2087 5.8351C65.1814 2.60523 60.858 0.586975 56.079 0.586975C45.3499 0.586975 37.4659 10.5972 39.8891 20.9888C26.082 20.297 13.8375 13.682 5.63963 3.62785C1.28588 11.0967 3.38175 20.8673 10.7797 25.8151C8.0595 25.7273 5.4945 24.9815 3.25687 23.7361C3.07463 31.4345 8.59275 38.6367 16.5847 40.2398C14.2459 40.8743 11.6842 41.0229 9.07875 40.5233C11.1915 47.1249 17.3272 51.9275 24.6038 52.0625C17.6175 57.5401 8.8155 59.987 0 58.9475C7.35412 63.6624 16.092 66.413 25.4745 66.413C56.3288 66.413 73.7606 40.3546 72.7076 16.9827C75.9544 14.6371 78.7725 11.711 81 8.37985Z" fill="#4152A4"/>
</svg>
