<svg width="69" height="69" viewBox="0 0 69 69" fill="none" xmlns="http://www.w3.org/2000/svg">
<path d="M34.5 68.25C29.8312 68.25 25.4438 67.3641 21.3375 65.5922C17.2313 63.8203 13.6594 61.4156 10.6219 58.3781C7.58438 55.3406 5.17969 51.7687 3.40781 47.6625C1.63594 43.5562 0.75 39.1688 0.75 34.5C0.75 29.8312 1.63594 25.4438 3.40781 21.3375C5.17969 17.2313 7.58438 13.6594 10.6219 10.6219C13.6594 7.58438 17.2313 5.17969 21.3375 3.40781C25.4438 1.63594 29.8312 0.75 34.5 0.75C39.1688 0.75 43.5562 1.63594 47.6625 3.40781C51.7687 5.17969 55.3406 7.58438 58.3781 10.6219C61.4156 13.6594 63.8203 17.2313 65.5922 21.3375C67.3641 25.4438 68.25 29.8312 68.25 34.5V38.9719C68.25 42.1219 67.1391 44.7797 64.9172 46.9453C62.6953 49.1109 59.9813 50.1937 56.775 50.1937C54.75 50.1937 52.8375 49.7016 51.0375 48.7172C49.2375 47.7328 47.8594 46.3406 46.9031 44.5406C45.4406 46.4531 43.6125 47.8734 41.4188 48.8016C39.225 49.7297 36.9188 50.1937 34.5 50.1937C30.1125 50.1937 26.3859 48.675 23.3203 45.6375C20.2547 42.6 18.7219 38.8875 18.7219 34.5C18.7219 30.1125 20.2547 26.3719 23.3203 23.2781C26.3859 20.1844 30.1125 18.6375 34.5 18.6375C38.8875 18.6375 42.6141 20.1844 45.6797 23.2781C48.7453 26.3719 50.2781 30.1125 50.2781 34.5V38.9719C50.2781 40.7156 50.9109 42.1781 52.1766 43.3594C53.4422 44.5406 54.975 45.1312 56.775 45.1312C58.5188 45.1312 60.0234 44.5406 61.2891 43.3594C62.5547 42.1781 63.1875 40.7156 63.1875 38.9719V34.5C63.1875 26.5125 60.4031 19.7344 54.8344 14.1656C49.2656 8.59687 42.4875 5.8125 34.5 5.8125C26.5125 5.8125 19.7344 8.59687 14.1656 14.1656C8.59687 19.7344 5.8125 26.5125 5.8125 34.5C5.8125 42.4875 8.59687 49.2656 14.1656 54.8344C19.7344 60.4031 26.5125 63.1875 34.5 63.1875H52.5563V68.25H34.5ZM34.5 45.1312C37.4813 45.1312 40.0125 44.1047 42.0938 42.0516C44.175 39.9984 45.2156 37.4813 45.2156 34.5C45.2156 31.4625 44.175 28.9031 42.0938 26.8219C40.0125 24.7406 37.4813 23.7 34.5 23.7C31.5187 23.7 28.9875 24.7406 26.9062 26.8219C24.825 28.9031 23.7844 31.4625 23.7844 34.5C23.7844 37.4813 24.825 39.9984 26.9062 42.0516C28.9875 44.1047 31.5187 45.1312 34.5 45.1312Z" fill="#4152A4"/>
</svg>
