<svg width="55" height="55" viewBox="0 0 55 55" fill="none" xmlns="http://www.w3.org/2000/svg">
<path d="M43.5417 0H11.4583C5.13104 0 0 5.13104 0 11.4583V43.5417C0 49.869 5.13104 55 11.4583 55H43.5417C49.8713 55 55 49.869 55 43.5417V11.4583C55 5.13104 49.8713 0 43.5417 0ZM18.3333 43.5417H11.4583V18.3333H18.3333V43.5417ZM14.8958 15.4275C12.6821 15.4275 10.8854 13.6171 10.8854 11.385C10.8854 9.15292 12.6821 7.3425 14.8958 7.3425C17.1096 7.3425 18.9062 9.15292 18.9062 11.385C18.9062 13.6171 17.1119 15.4275 14.8958 15.4275ZM45.8333 43.5417H38.9583V30.6992C38.9583 22.9808 29.7917 23.5652 29.7917 30.6992V43.5417H22.9167V18.3333H29.7917V22.3781C32.9908 16.4519 45.8333 16.0142 45.8333 28.0523V43.5417Z" fill="#FFFAEA"/>
</svg>
